<svg xmlns="http://www.w3.org/2000/svg" version="1.1" xmlns:xlink="http://www.w3.org/1999/xlink" xmlns:svgjs="http://svgjs.dev/svgjs" width="1000" height="323" viewBox="0 0 1000 323"><g transform="matrix(1,0,0,1,-0.6060606060606233,-0.1196890800316055)"><svg viewBox="0 0 396 128" data-background-color="#ffffff" preserveAspectRatio="xMidYMid meet" height="323" width="1000" xmlns="http://www.w3.org/2000/svg" xmlns:xlink="http://www.w3.org/1999/xlink"><g id="tight-bounds" transform="matrix(1,0,0,1,0.2400000000000091,0.04743096669983515)"><svg viewBox="0 0 395.52 127.90513806660036" height="127.90513806660036" width="395.52"><g><svg viewBox="0 0 397.4975999999999 128.54466375693335" height="127.90513806660036" width="395.52"><g><rect width="397.4975999999999" height="4.4605753016661085" x="0" y="62.94473404443907" fill="#ffffff" opacity="1" stroke-width="0" stroke="transparent" fill-opacity="1" class="rect-o-0" data-fill-palette-color="secondary" rx="1%" id="o-0" data-palette-color="#000001"></rect></g><g transform="matrix(1,0,0,1,0.9887999999999693,79.0822080415662)"><svg viewBox="0 0 395.52 49.46245571536715" height="49.46245571536715" width="395.52"><g><svg viewBox="0 0 395.52 49.46245571536715" height="49.46245571536715" width="395.52"><g><svg viewBox="0 0 395.52 49.46245571536715" height="49.46245571536715" width="395.52"><g transform="matrix(1,0,0,1,0,0)"><svg width="395.52" viewBox="3.1500000953674316 -40.849998474121094 330.2099914550781 41.29999923706055" height="49.46245571536715" data-palette-color="#12618b"><path d="M12.4 0L3.15 0 3.15-40.5 11.95-40.5Q16.45-40.5 19.07-39.13 21.7-37.75 22.83-35 23.95-32.25 23.95-28.15L23.95-28.15 23.95-13.25Q23.95-8.95 22.83-6 21.7-3.05 19.18-1.53 16.65 0 12.4 0L12.4 0ZM8.8-36.3L8.8-4.05 12-4.05Q15.1-4.05 16.4-5.25 17.7-6.45 17.98-8.75 18.25-11.05 18.25-14.3L18.25-14.3 18.25-27.45Q18.25-30.6 17.85-32.55 17.45-34.5 16.1-35.4 14.75-36.3 11.85-36.3L11.85-36.3 8.8-36.3ZM32.6 0L27.3 0 35.9-40.5 41.35-40.5 50 0 44.65 0 42.8-10.2 34.55-10.2 32.6 0ZM38.65-32.5L35.3-14.25 42.05-14.25 38.65-32.5ZM58.9 0L54.1 0 54.1-40.5 57.95-40.5 69.45-13.6 69.45-40.5 74.15-40.5 74.15 0 70.55 0 58.9-27.65 58.9 0ZM86.34 0L80.79 0 80.79-40.5 86.34-40.5 86.34 0ZM108.69 0L92.89 0 92.89-40.5 108.59-40.5 108.59-36.3 98.54-36.3 98.54-22.9 106.69-22.9 106.69-18.9 98.54-18.9 98.54-4.05 108.69-4.05 108.69 0ZM129.24 0L113.24 0 113.24-40.5 118.89-40.5 118.89-4.05 129.24-4.05 129.24 0ZM155.33 0L144.53 0 144.53-40.5 153.83-40.5Q156.58-40.5 158.61-39.9 160.63-39.3 161.98-38.05 163.33-36.8 163.98-34.88 164.63-32.95 164.63-30.35L164.63-30.35Q164.63-27.85 164.01-26.03 163.38-24.2 162.11-23.15 160.83-22.1 158.83-21.8L158.83-21.8Q161.28-21.25 162.78-19.93 164.28-18.6 165.01-16.53 165.73-14.45 165.73-11.55L165.73-11.55Q165.73-8.95 165.13-6.8 164.53-4.65 163.26-3.15 161.98-1.65 160.01-0.83 158.03 0 155.33 0L155.33 0ZM150.18-19.3L150.18-4.05 153.98-4.05Q157.78-4.05 159.06-5.83 160.33-7.6 160.33-11.55L160.33-11.55Q160.33-14.1 159.66-15.83 158.98-17.55 157.51-18.43 156.03-19.3 153.53-19.3L153.53-19.3 150.18-19.3ZM150.18-36.3L150.18-23.6 153.53-23.6Q155.93-23.6 157.28-24.28 158.63-24.95 159.18-26.45 159.73-27.95 159.73-30.35L159.73-30.35Q159.73-33.15 158.88-34.4 158.03-35.65 156.23-35.98 154.43-36.3 151.53-36.3L151.53-36.3 150.18-36.3ZM173.83 0L168.53 0 177.13-40.5 182.58-40.5 191.23 0 185.88 0 184.03-10.2 175.78-10.2 173.83 0ZM179.88-32.5L176.53-14.25 183.28-14.25 179.88-32.5ZM200.98 0L195.33 0 195.33-40.5 203.48-40.5Q207.53-40.5 210.18-39.43 212.83-38.35 214.1-35.98 215.38-33.6 215.38-29.75L215.38-29.75Q215.38-27.4 214.88-25.48 214.38-23.55 213.28-22.23 212.18-20.9 210.38-20.3L210.38-20.3 216.13 0 210.68 0 205.38-19 200.98-19 200.98 0ZM200.98-36.45L200.98-23.05 203.13-23.05Q205.53-23.05 207.03-23.65 208.53-24.25 209.23-25.7 209.93-27.15 209.93-29.75L209.93-29.75Q209.93-33.3 208.63-34.88 207.33-36.45 203.48-36.45L203.48-36.45 200.98-36.45ZM231.38 0L225.73 0 225.73-36.3 218.88-36.3 218.88-40.5 238.03-40.5 238.03-36.3 231.38-36.3 231.38 0ZM252.27 0.45L252.27 0.45Q248.17 0.45 245.72-1.15 243.27-2.75 242.22-5.73 241.17-8.7 241.17-12.7L241.17-12.7 241.17-28.05Q241.17-32.05 242.25-34.93 243.32-37.8 245.75-39.33 248.17-40.85 252.27-40.85L252.27-40.85Q256.37-40.85 258.77-39.3 261.17-37.75 262.25-34.9 263.32-32.05 263.32-28.05L263.32-28.05 263.32-12.65Q263.32-8.7 262.25-5.75 261.17-2.8 258.77-1.18 256.37 0.45 252.27 0.45ZM252.27-4L252.27-4Q254.52-4 255.67-4.93 256.82-5.85 257.22-7.53 257.62-9.2 257.62-11.45L257.62-11.45 257.62-29.2Q257.62-31.45 257.22-33.08 256.82-34.7 255.67-35.58 254.52-36.45 252.27-36.45L252.27-36.45Q250.02-36.45 248.85-35.58 247.67-34.7 247.27-33.08 246.87-31.45 246.87-29.2L246.87-29.2 246.87-11.45Q246.87-9.2 247.27-7.53 247.67-5.85 248.85-4.93 250.02-4 252.27-4ZM284.87 0L268.87 0 268.87-40.5 274.52-40.5 274.52-4.05 284.87-4.05 284.87 0ZM294.57 0L289.02 0 289.02-40.5 294.57-40.5 294.57 0ZM305.92 0L301.12 0 301.12-40.5 304.97-40.5 316.47-13.6 316.47-40.5 321.17-40.5 321.17 0 317.57 0 305.92-27.65 305.92 0ZM333.36 0L327.81 0 327.81-40.5 333.36-40.5 333.36 0Z" opacity="1" transform="matrix(1,0,0,1,0,0)" fill="#ffffff" class="undefined-text-0" data-fill-palette-color="primary" id="text-0"></path></svg></g></svg></g></svg></g></svg></g><g transform="matrix(1,0,0,1,168.5734306335072,0)"><svg viewBox="0 0 60.350738732985505 51.26783534897806" height="51.26783534897806" width="60.350738732985505"><g><svg xmlns="http://www.w3.org/2000/svg" xmlns:xlink="http://www.w3.org/1999/xlink" version="1.1" x="8" y="0" viewBox="17.299999237060547 12.199999809265137 65.39999389648438 75.60000610351562" style="enable-background:new 0 0 100 100;" xml:space="preserve" height="51.26783534897806" width="44.350738732985505" class="icon-icon-0" data-fill-palette-color="accent" id="icon-0"><path d="M50 12.2L17.3 31.1v37.8L50 87.8l32.7-18.9V31.1L50 12.2zM32.1 37.4L50 16l17 21.4H32.1zM67.3 39.4L50 70.4l-18.2-31H67.3zM48.1 71l-27.7-4.5 9.8-25.9L48.1 71zM68.9 40.7l10.7 25.9-27.7 4.5L68.9 40.7zM69.2 37.1L52.6 16l27 15.6L69.2 37.1zM29.8 37.1l-9.4-5.5 26.8-15.5L29.8 37.1zM28.8 38.8l-9.5 25V33.3L28.8 38.8zM49 73.2v11.7L20.9 68.7 49 73.2zM51 73.2l28.1-4.5L51 84.9V73.2zM70.3 38.8l10.5-5.6v30.9L70.3 38.8z" fill="#ffffff" data-fill-palette-color="accent"></path></svg></g></svg></g><g><rect width="92.04031063350723" height="4.4605753016661085" y="45.80726004731195" x="228.92416936649272" fill="#ffffff" data-fill-palette-color="secondary"></rect><rect width="92.04031063350723" height="4.4605753016661085" y="45.80726004731195" x="76.53311999999997" fill="#ffffff" data-fill-palette-color="secondary"></rect></g></svg></g><defs></defs></svg><rect width="395.52" height="127.90513806660036" fill="none" stroke="none" visibility="hidden"></rect></g></svg></g></svg>